<svg width="256" height="256" viewBox="0 0 256 256" fill="none" xmlns="http://www.w3.org/2000/svg">
  <!-- Background Circle -->
  <circle cx="128" cy="128" r="120" fill="url(#gradient1)"/>
  
  <!-- YouTube Play Button Background -->
  <circle cx="128" cy="128" r="90" fill="#FF0000"/>
  <circle cx="128" cy="128" r="75" fill="#CC0000"/>
  
  <!-- Play Triangle -->
  <path d="M108 98L158 128L108 158V98Z" fill="white"/>
  
  <!-- AI Brain Icon (overlay) -->
  <circle cx="128" cy="128" r="50" fill="url(#gradient2)" opacity="0.95"/>
  
  <!-- Brain Pattern -->
  <path d="M128 88C111.5 88 98 101.5 98 118C98 134.5 111.5 148 128 148C144.5 148 158 134.5 158 118C158 101.5 144.5 88 128 88ZM128 140C115.2 140 106 130.8 106 118C106 105.2 115.2 96 128 96C140.8 96 150 105.2 150 118C150 130.8 140.8 140 128 140Z" fill="white"/>
  
  <!-- Neural Network Connections -->
  <path d="M88 108L108 128L88 148" stroke="#60A5FA" stroke-width="3" opacity="0.8"/>
  <path d="M168 108L148 128L168 148" stroke="#60A5FA" stroke-width="3" opacity="0.8"/>
  <path d="M108 88L128 108L148 88" stroke="#60A5FA" stroke-width="3" opacity="0.8"/>
  <path d="M108 168L128 148L148 168" stroke="#60A5FA" stroke-width="3" opacity="0.8"/>
  
  <!-- Summary Lines (representing text) -->
  <rect x="60" y="180" width="136" height="6" rx="3" fill="#10B981"/>
  <rect x="60" y="190" width="120" height="6" rx="3" fill="#10B981"/>
  <rect x="60" y="200" width="104" height="6" rx="3" fill="#10B981"/>
  
  <!-- Sparkles for AI -->
  <circle cx="80" cy="80" r="4" fill="#FBBF24"/>
  <circle cx="176" cy="80" r="4" fill="#FBBF24"/>
  <circle cx="80" cy="176" r="4" fill="#FBBF24"/>
  <circle cx="176" cy="176" r="4" fill="#FBBF24"/>
  
  <!-- Gradients -->
  <defs>
    <linearGradient id="gradient1" x1="0%" y1="0%" x2="100%" y2="100%">
      <stop offset="0%" style="stop-color:#1F2937;stop-opacity:1" />
      <stop offset="100%" style="stop-color:#374151;stop-opacity:1" />
    </linearGradient>
    <linearGradient id="gradient2" x1="0%" y1="0%" x2="100%" y2="100%">
      <stop offset="0%" style="stop-color:#3B82F6;stop-opacity:1" />
      <stop offset="100%" style="stop-color:#1D4ED8;stop-opacity:1" />
    </linearGradient>
  </defs>
</svg>
